<?xml version="1.0" encoding="utf-8"?>
<!-- Generator: Adobe Illustrator 25.2.0, SVG Export Plug-In . SVG Version: 6.00 Build 0)  -->
<svg version="1.1" id="Ebene_1" xmlns="http://www.w3.org/2000/svg" xmlns:xlink="http://www.w3.org/1999/xlink" x="0px" y="0px"
	 viewBox="0 0 56.7 56.7" style="enable-background:new 0 0 56.7 56.7;" xml:space="preserve">
<style type="text/css">
	.st0{fill:#FFFFFF;}
</style>
<path class="st0" d="M52,41.7c-1.9,5.4-7.4,14.9-13.1,15c-3.8,0.1-5-2.2-9.3-2.2c-4.3,0-5.7,2.2-9.3,2.3C14.2,57,4.9,43,4.9,30.8
	c0-11.2,7.8-16.7,14.6-16.8c3.7-0.1,7.1,2.5,9.3,2.5c2.2,0,6.4-3,10.8-2.6c1.8,0.1,7,0.7,10.3,5.6C41.2,25.2,42.5,37.3,52,41.7z
	 M39.7,0.2c-6.7,0.3-12.1,7.3-11.3,13C34.5,13.7,40.4,6.8,39.7,0.2z"/>
</svg>
