<?xml version="1.0" encoding="utf-8"?>
<!-- Generator: Adobe Illustrator 25.2.0, SVG Export Plug-In . SVG Version: 6.00 Build 0)  -->
<svg version="1.1" id="Ebene_1" xmlns="http://www.w3.org/2000/svg" xmlns:xlink="http://www.w3.org/1999/xlink" x="0px" y="0px"
	 viewBox="0 0 24 24" style="enable-background:new 0 0 24 24;" xml:space="preserve">
<style type="text/css">
	.st0{fill:#FFFFFF;}
</style>
<path class="st0" d="M15.5,20h-7c-2.2-3-4-6.3-4-12h15C19.5,13.7,17.6,17.1,15.5,20z M20.3,10c-0.1,0.7-0.1,1.4-0.3,2h1.4
	c-0.4,1.3-1.4,2.5-2.2,2.9c-0.4,1-0.8,2-1.3,2.9c3.2-1.1,5.6-4.5,5.9-7.8C24,10,20.3,10,20.3,10z M12.9,7c4.7-4.3-1-4,0.1-7
	C9.2,3.8,14.4,3.9,12.9,7z M10.1,7c3.2-2.8-0.7-3.1,0.1-5.1C7.5,4.7,11.1,4.8,10.1,7z M19.5,22h-15l0,0c0,1.1,0.9,2,2,2h11
	C18.6,24,19.5,23.1,19.5,22L19.5,22z"/>
</svg>
