<?xml version="1.0" encoding="utf-8"?>
<!-- Generator: Adobe Illustrator 25.2.0, SVG Export Plug-In . SVG Version: 6.00 Build 0)  -->
<svg version="1.1" id="Ebene_1" xmlns="http://www.w3.org/2000/svg" xmlns:xlink="http://www.w3.org/1999/xlink" x="0px" y="0px"
	 viewBox="0 0 24 24" style="enable-background:new 0 0 24 24;" xml:space="preserve">
<style type="text/css">
	.st0{fill:#FFFFFF;}
</style>
<path class="st0" d="M20.6,19c-0.5-0.4-0.3-1.4-0.9-1.9c0.6-3.4-1-6.3-2.8-8.2c-1.6-1.6-1.1-3.1-1.1-4.5c0-2.1-0.9-4.4-3.6-4.4
	C9.4,0,8.6,2.4,8.6,3.7C8.5,7,9.2,7.8,7.3,10.2c-2.2,2.8-2.6,5.6-2.1,7.1c-0.2,0.3-0.6,0.6-1.2,0.8c-1.7,0.7-0.4,1.9-0.9,2.8
	C3.1,21.1,3,21.4,3,21.6c0,0.8,0.6,1.4,1.7,1.3c1.5-0.1,2.8,0.9,3.7,0.9c0.8,0,1.4-0.4,1.7-1c1.4-0.3,3.1-0.3,4.5,0.1
	c0.2,0.7,0.9,1.1,1.7,1.1c1.6,0,1.9-1.8,3.8-2.5c0.7-0.2,1-0.9,1-1.5C21,19.6,20.9,19.3,20.6,19z M11.4,8.6c-0.3,0-0.6-0.3-1-0.6
	C9.9,7.6,9.4,7.4,9.4,7c0-0.3,0.4-0.4,0.9-0.7C10.8,6,11,5.6,11.5,5.6c0.5,0,0.7,0.3,1.4,0.6c0.7,0.3,1.2,0.4,1.2,0.8
	c0,0.4-0.7,0.6-1.2,0.9C12.3,8.2,12,8.6,11.4,8.6z M13.1,3.4c0.9,0.1,1,1.7,0.6,2.5l-0.4-0.1c0.2-0.5,0.2-1.4-0.4-1.5
	c-0.4,0-0.6,0.5-0.7,0.9C12,5,11.9,5,11.6,5C11.7,4.1,12.3,3.2,13.1,3.4z M9.7,3.7c0.7-0.2,1.1,0.6,1.1,1.4l-0.3,0.2
	c0-0.3-0.2-0.9-0.6-0.8C9.5,4.7,9.5,5.6,9.8,5.8L9.5,6C9,5.3,9,3.9,9.7,3.7z M7.6,22.9c-2-0.9-2.6-0.7-3-0.7c-0.8,0-1-0.6-0.7-1.1
	c0.2-0.5,0.2-1,0.1-1.3c-0.1-0.6-0.1-0.8,0.5-1.1c0.8-0.3,1.2-0.8,1.4-1.1c0.8-0.9,1.5,0.5,2.2,1.9c0.4,0.9,1.2,1.3,1.5,2.2
	C9.7,22.6,8.8,23.5,7.6,22.9z M14.6,21.1c-1.4,0.7-3.1,1-4.5,0.3c-0.2-0.6-0.5-0.9-0.8-1.3c0.5-0.1,0.9-0.8,0.5-1.5
	c-0.5-0.7-1.6-1.2-2.6-2c-1-0.8-1.3-2.6,0-4.7c-0.7,1.9-0.3,3.6,0.1,4.1c0.1-1,0.1-2.6,1.5-4.6c0.7-1,0.7-2.3,0.7-3.1L10,8.5
	c0.5,0.3,0.8,0.7,1.4,0.7c0.8,0,1.3-0.5,1.9-0.9c0.2-0.1,0.6-0.3,0.9-0.5c0.5,2.5,2.7,5.5,2.8,7.2c0.5-1-0.1-3.5-0.1-3.5
	c0.8,1.3,0.9,2.4,0.9,3.7c0.6,0.2,1.2,0.9,1.3,1.7l-0.2,0c-0.1-0.9-2.6-2.3-2.8-0.5c-1.2,0.2-0.8,2.1-1,3.3
	C14.9,20.2,14.7,20.6,14.6,21.1z M19.4,21c-1,0.4-1.6,1.2-2.1,1.7c-0.9,1-2,0.5-2.2-0.4c-0.1-1,0.4-1.5,0.6-2.6c0.2-1,0-2.5,0.4-2.7
	c0.3,1.8,2.1,1,2.5,0.5c0.7,0,0.7,0.2,0.9,0.8c0.1,0.4,0.2,0.7,0.6,1.1C20.5,20,20.3,20.7,19.4,21z M11.4,8c-0.7,0-1.1-0.4-1.5-0.8
	c-0.2-0.2,0.1-0.5,0.3-0.3c0.4,0.3,0.8,0.7,1.3,0.7c0.6,0,1.1-0.5,1.9-0.8c0.2-0.1,0.4,0.3,0.1,0.4C12.7,7.5,12.2,8,11.4,8z"/>
</svg>
